<mxfile host="app.diagrams.net" modified="2021-11-21T10:22:07.371Z" agent="5.0 (Macintosh; Intel Mac OS X 10_15_7) AppleWebKit/605.1.15 (KHTML, like Gecko) Version/14.1.1 Safari/605.1.15" etag="LFdgEZK22oMJbdhYCv7v" version="15.8.3" type="github">
  <diagram id="Uv4FRBFuWEhtrE_NSL4f" name="Page-1">
    <mxGraphModel dx="1773" dy="558" grid="1" gridSize="10" guides="1" tooltips="1" connect="1" arrows="1" fold="1" page="1" pageScale="1" pageWidth="827" pageHeight="1169" math="0" shadow="0">
      <root>
        <mxCell id="0" />
        <mxCell id="1" parent="0" />
        <mxCell id="A3-TGXWhzppWLYydge93-1" value="2022届美团薪资&amp;nbsp;" style="rounded=0;whiteSpace=wrap;html=1;fontSize=16;fillColor=#cce5ff;strokeColor=#36393d;" parent="1" vertex="1">
          <mxGeometry x="-21.67" y="160" width="611.67" height="54" as="geometry" />
        </mxCell>
        <mxCell id="A3-TGXWhzppWLYydge93-2" value="offer 等级" style="rounded=0;whiteSpace=wrap;html=1;fontSize=16;fillColor=#ffff88;strokeColor=#36393d;" parent="1" vertex="1">
          <mxGeometry x="80" y="214" width="101.66666666666667" height="54" as="geometry" />
        </mxCell>
        <mxCell id="A3-TGXWhzppWLYydge93-3" value="月薪" style="rounded=0;whiteSpace=wrap;html=1;fontSize=16;fillColor=#ffff88;strokeColor=#36393d;" parent="1" vertex="1">
          <mxGeometry x="181.66666666666669" y="214" width="101.66666666666667" height="54" as="geometry" />
        </mxCell>
        <mxCell id="A3-TGXWhzppWLYydge93-5" value="股票" style="rounded=0;whiteSpace=wrap;html=1;fontSize=16;fillColor=#ffff88;strokeColor=#36393d;" parent="1" vertex="1">
          <mxGeometry x="385" y="214" width="105" height="54" as="geometry" />
        </mxCell>
        <mxCell id="A3-TGXWhzppWLYydge93-6" value="白菜" style="rounded=0;whiteSpace=wrap;html=1;fontSize=16;" parent="1" vertex="1">
          <mxGeometry x="80" y="268" width="101.66666666666667" height="54" as="geometry" />
        </mxCell>
        <mxCell id="A3-TGXWhzppWLYydge93-7" value="21-24k*15.5" style="rounded=0;whiteSpace=wrap;html=1;fontSize=16;" parent="1" vertex="1">
          <mxGeometry x="181.66666666666669" y="268" width="101.66666666666667" height="54" as="geometry" />
        </mxCell>
        <mxCell id="A3-TGXWhzppWLYydge93-10" value="sp" style="rounded=0;whiteSpace=wrap;html=1;fontSize=16;" parent="1" vertex="1">
          <mxGeometry x="80" y="322" width="101.66666666666667" height="54" as="geometry" />
        </mxCell>
        <mxCell id="A3-TGXWhzppWLYydge93-11" value="26-28k*15.5" style="rounded=0;whiteSpace=wrap;html=1;fontSize=16;" parent="1" vertex="1">
          <mxGeometry x="181.66666666666669" y="322" width="101.66666666666667" height="54" as="geometry" />
        </mxCell>
        <mxCell id="A3-TGXWhzppWLYydge93-12" value="ssp" style="rounded=0;whiteSpace=wrap;html=1;fontSize=16;" parent="1" vertex="1">
          <mxGeometry x="80" y="376" width="101.66666666666667" height="54" as="geometry" />
        </mxCell>
        <mxCell id="A3-TGXWhzppWLYydge93-13" value="29-32k*15.5" style="rounded=0;whiteSpace=wrap;html=1;fontSize=16;" parent="1" vertex="1">
          <mxGeometry x="181.66666666666669" y="376" width="101.66666666666667" height="54" as="geometry" />
        </mxCell>
        <mxCell id="A3-TGXWhzppWLYydge93-14" value="岗位" style="rounded=0;whiteSpace=wrap;html=1;fontSize=16;fillColor=#ffff88;strokeColor=#36393d;" parent="1" vertex="1">
          <mxGeometry x="-21.67" y="214" width="101.66666666666667" height="54" as="geometry" />
        </mxCell>
        <mxCell id="A3-TGXWhzppWLYydge93-15" value="技术岗" style="rounded=0;whiteSpace=wrap;html=1;fontSize=16;" parent="1" vertex="1">
          <mxGeometry x="-21.67" y="268" width="101.67" height="162" as="geometry" />
        </mxCell>
        <mxCell id="A3-TGXWhzppWLYydge93-23" value="年总包" style="rounded=0;whiteSpace=wrap;html=1;fontSize=16;fillColor=#ffff88;strokeColor=#36393d;" parent="1" vertex="1">
          <mxGeometry x="490" y="214" width="100" height="54" as="geometry" />
        </mxCell>
        <mxCell id="A3-TGXWhzppWLYydge93-26" value="约32w" style="rounded=0;whiteSpace=wrap;html=1;fontSize=16;" parent="1" vertex="1">
          <mxGeometry x="490" y="268" width="100" height="54" as="geometry" />
        </mxCell>
        <mxCell id="A3-TGXWhzppWLYydge93-27" value="约40w" style="rounded=0;whiteSpace=wrap;html=1;fontSize=16;" parent="1" vertex="1">
          <mxGeometry x="490" y="322" width="100" height="54" as="geometry" />
        </mxCell>
        <mxCell id="A3-TGXWhzppWLYydge93-28" value="约50w" style="rounded=0;whiteSpace=wrap;html=1;fontSize=16;" parent="1" vertex="1">
          <mxGeometry x="490" y="376" width="100" height="54" as="geometry" />
        </mxCell>
        <mxCell id="A3-TGXWhzppWLYydge93-32" value="签字费" style="rounded=0;whiteSpace=wrap;html=1;fontSize=16;fillColor=#ffff88;strokeColor=#36393d;" parent="1" vertex="1">
          <mxGeometry x="283.33" y="214" width="101.66666666666667" height="54" as="geometry" />
        </mxCell>
        <mxCell id="A3-TGXWhzppWLYydge93-35" value="有的没有签字费" style="rounded=0;whiteSpace=wrap;html=1;fontSize=16;" parent="1" vertex="1">
          <mxGeometry x="283.3366666666667" y="268" width="101.66666666666667" height="54" as="geometry" />
        </mxCell>
        <mxCell id="A3-TGXWhzppWLYydge93-36" value="5w" style="rounded=0;whiteSpace=wrap;html=1;fontSize=16;" parent="1" vertex="1">
          <mxGeometry x="283.3366666666667" y="322" width="101.66666666666667" height="54" as="geometry" />
        </mxCell>
        <mxCell id="A3-TGXWhzppWLYydge93-37" value="5w" style="rounded=0;whiteSpace=wrap;html=1;fontSize=16;" parent="1" vertex="1">
          <mxGeometry x="283.3366666666667" y="376" width="101.66666666666667" height="54" as="geometry" />
        </mxCell>
        <mxCell id="A3-TGXWhzppWLYydge93-38" value="无" style="rounded=0;whiteSpace=wrap;html=1;fontSize=16;" parent="1" vertex="1">
          <mxGeometry x="385" y="268" width="105" height="54" as="geometry" />
        </mxCell>
        <mxCell id="A3-TGXWhzppWLYydge93-39" value="无" style="rounded=0;whiteSpace=wrap;html=1;fontSize=16;" parent="1" vertex="1">
          <mxGeometry x="385" y="322" width="105" height="54" as="geometry" />
        </mxCell>
        <mxCell id="A3-TGXWhzppWLYydge93-40" value="20w/4年" style="rounded=0;whiteSpace=wrap;html=1;fontSize=16;" parent="1" vertex="1">
          <mxGeometry x="385" y="376" width="105" height="54" as="geometry" />
        </mxCell>
      </root>
    </mxGraphModel>
  </diagram>
</mxfile>
